<?xml version="1.0" encoding="UTF-8" standalone="no"?>
<svg width="192px" height="39px" viewBox="0 0 192 39" version="1.1" xmlns="http://www.w3.org/2000/svg" xmlns:xlink="http://www.w3.org/1999/xlink" xmlns:sketch="http://www.bohemiancoding.com/sketch/ns">
    <title>eyes-on-richmond-glasses-green</title>
    <description>Created with Sketch (http://www.bohemiancoding.com/sketch)</description>
    <defs></defs>
    <g id="Page-1" stroke="none" stroke-width="1" fill="none" fill-rule="evenodd" sketch:type="MSPage">
        <path d="M154.376,27.168 C146.626,30.251 138.626,32.501 131.126,32.501 C123.626,32.501 103.708,29.585 103.708,16.751 C103.708,11.167 108.459,8.417 128.958,8.417 C133.042,8.417 144.294,8.833 152.126,10 C159.96,11.167 167.626,13.167 167.626,15.917 C167.626,18.667 162.126,24.085 154.376,27.168 C154.376,27.168 162.126,24.085 154.376,27.168 L154.376,27.168 L154.376,27.168 Z M60.166,32.501 C52.666,32.501 44.666,30.251 36.916,27.168 C29.166,24.085 23.665,18.667 23.665,15.917 C23.665,13.167 31.332,11.167 39.165,10 C46.998,8.833 58.249,8.417 62.333,8.417 C82.832,8.417 87.583,11.167 87.583,16.751 C87.583,29.585 67.666,32.501 60.166,32.501 L60.166,32.501 L60.166,32.501 L60.166,32.501 Z M166.959,6.501 C161.626,6.501 141.793,3.5 139.71,3.251 C138.541,3.111 119.126,0.668 106.876,3.251 C99.654,4.775 96.345,7.949 95.646,12.125 C94.947,7.949 91.638,4.775 84.415,3.251 C72.165,0.668 52.752,3.111 51.581,3.251 C49.498,3.5 29.665,6.501 24.332,6.501 C19.915,6.501 8.668,5.415 0,0 C1.082,4.501 11.583,19.667 20.499,26.167 C29.416,32.667 44.248,38.249 60.665,38.249 C77.063,38.249 89.8,31.017 93.732,22.114 C94.278,21.965 95.011,21.833 95.792,21.833 C96.474,21.833 97.045,21.924 97.527,22.044 C97.533,22.058 97.538,22.07 97.543,22.083 C101.46,31 114.209,38.249 130.626,38.249 C147.043,38.249 161.876,32.667 170.792,26.167 C179.708,19.667 190.21,4.501 191.292,0 C182.625,5.415 171.376,6.501 166.959,6.501 L166.959,6.501 Z M166.959,6.501" id="eyesonrichmond-logo" fill="#6CBE9E" sketch:type="MSShapeGroup"></path>
    </g>
</svg>