<svg width="475" height="47" xmlns="http://www.w3.org/2000/svg" xmlns:sketch="http://www.bohemiancoding.com/sketch/ns"><title>warpaint-logo</title><g sketch:type="MSLayerGroup" transform="translate(0 -1)" fill="#fff"><g id="Group" sketch:type="MSShapeGroup"><path d="M247.355 21.188h2.288l3.568 12.91h.045l3.82-12.91h2.516l3.819 12.91h.046l3.568-12.91h2.286l-4.711 16.15h-2.31l-3.934-13.187h-.045l-3.911 13.187h-2.311l-4.734-16.15zm0 0" id="Shape"/><path d="M292.913 21.188h5.666c4.12 0 5.167 2.487 5.167 4.515 0 2.055-1.524 3.992-3.96 4.268l4.574 7.368h-2.731l-4.095-7.118h-2.435v7.118h-2.185v-16.151h-.001zm2.185 7.118h2.866c1.73 0 3.459-.411 3.459-2.603 0-2.188-1.729-2.599-3.459-2.599h-2.866v5.202zm0 0" id="Shape"/><path d="M309.999 20.865h5.781c4.202 0 5.269 2.536 5.269 4.607 0 2.069-1.067 4.605-5.269 4.605h-3.552v7.261h-2.229v-16.473zm2.228 7.26h2.925c1.764 0 3.528-.419 3.528-2.652 0-2.234-1.764-2.653-3.528-2.653h-2.925v5.305zm0 0" id="Shape"/><path d="M343.543 21.127h2.328v16.212h-2.328v-16.212zm0 0" id="Shape"/><path d="M353.139 21.127h2.849l8.814 13.326h.045v-13.326h2.169v16.212h-2.758l-8.904-13.329h-.046v13.329h-2.169v-16.212zm0 0" id="Shape"/><path d="M377.235 23.207h-5.201v-2.056h12.591v2.056h-5.2v14.132h-2.189v-14.132h-.001zm0 0" id="Shape"/><path d="M280.777 21.342h-1.847l-6.627 15.997h2.379l1.487-3.955.723-1.898 2.844-7.341h.043l2.804 7.341.743 1.898 1.507 3.955h2.378l-6.434-15.997zm0 0" id="Shape"/><path d="M331.751 21.342h-1.847l-6.626 15.997h2.378l1.487-3.955.724-1.898 2.845-7.341h.041l2.804 7.341.744 1.898 1.507 3.955h2.377l-6.434-15.997zm0 0" id="Shape"/><path d="M409.609 37.339h-2.287l-3.566-12.912h-.047l-3.818 12.912h-2.518l-3.816-12.912h-.047l-3.567 12.912h-2.289l4.712-16.15h2.312l3.934 13.185h.046l3.91-13.185h2.311l4.73 16.15zm0 0" id="Shape"/><path d="M414.75 21.107h10.369v2.062h-8.189v4.838h7.62v2.062h-7.62v5.203h8.598v2.065h-10.778v-16.23zm0 0" id="Shape"/><path d="M431.424 21.342h5.564c6.74 0 8.387 5.039 8.387 7.998 0 4.089-3.042 7.999-8.745 7.999h-5.206v-15.997zm2.162 13.963h2.728c3.651 0 6.762-2.011 6.762-5.965 0-2.033-1.062-5.963-6.241-5.963h-3.248v11.928h-.001zm0 0" id="Shape"/><path d="M451.319 21.127h2.327v16.212h-2.327v-16.212zm0 0" id="Shape"/><path d="M468.313 21.342h-1.848l-6.625 15.997h2.375l1.49-3.955.72-1.898 2.848-7.341h.04l2.805 7.341.742 1.898 1.508 3.955h2.377l-6.432-15.997zm0 0" id="Shape"/></g><g sketch:type="MSShapeGroup"><path d="M205.753 13.828zm0 0" id="Shape"/><path d="M183.999 5.132h-.001l.001.002v-.002zm0 0" id="Shape"/><path d="M222.676 5.132h.001l-.002.002.001-.002zm0 0" id="Shape"/><path d="M186.687 45.894l16.863-12.65v-7.96c-5.621 6.868-11.243 13.74-16.863 20.61zm0 0" id="Shape"/><path d="M204.35 33.062l16.6 12.437c-5.533-6.763-11.066-13.525-16.6-20.288v7.851zm0 0" id="Shape"/><path d="M190.651 22.445l-5.494-19.794v26.45c1.832-2.218 3.663-4.437 5.494-6.656zm0 0" id="Shape"/><path d="M222.624 3.655l-5.246 18.907 5.246 6.354v-25.261zm0 0" id="Shape"/><path d="M233.048 12.537l-9.623-11.537v29.046c0 .456-.623.509-.769.159-6.23-7.545-12.459-15.091-18.689-22.637-6.28 7.606-12.561 15.215-18.841 22.822-.146.35-.77.296-.77-.16v-28.816l-9.265 11.123v34.79h9.393l.025-.032c6.355-7.767 12.71-15.535 19.065-23.305.039-.102.115-.17.208-.207.067-.037.138-.044.206-.029.104-.016.213.02.305.13 6.384 7.802 12.767 15.604 19.15 23.406l.03.037h9.574v-34.79h.001zm0 0" id="Shape"/></g><g sketch:type="MSShapeGroup"><path d="M.024 21.096h2.376l3.717 13.445h.047l3.956-13.445h2.613l3.955 13.445h.047l3.718-13.445h2.375l-4.894 16.818h-2.423l-4.062-13.73h-.047l-4.039 13.73h-2.422l-4.917-16.818zm0 0" id="Shape"/><path d="M27.39 21.096h10.856v2.138h-8.576v5.013h7.982v2.138h-7.982v5.392h9.003v2.139h-11.283v-16.82zm0 0" id="Shape"/><path d="M44.28 21.096h5.844c.729 0 1.405.087 2.031.261.625.175 1.164.432 1.615.772.452.34.808.775 1.069 1.307.261.53.392 1.152.392 1.864 0 .966-.269 1.755-.808 2.364s-1.235 1.057-2.09 1.342v.047c.507.032.982.163 1.425.393.443.23.827.531 1.152.902.324.373.582.805.772 1.295.19.491.285 1.021.285 1.592 0 .76-.155 1.43-.463 2.008-.309.578-.733 1.064-1.271 1.461-.539.396-1.164.696-1.876.902-.713.206-1.481.309-2.305.309h-5.772v-16.819zm2.281 6.983h3.112c.428 0 .832-.044 1.211-.13.38-.088.713-.234.998-.439.285-.206.511-.467.677-.785.167-.316.25-.703.25-1.164 0-.664-.214-1.242-.642-1.733-.427-.491-1.101-.736-2.019-.736h-3.587v4.987zm0 7.839h3.35c.348 0 .732-.035 1.152-.106.419-.071.812-.214 1.176-.427.364-.215.673-.504.927-.867.253-.365.38-.848.38-1.449 0-.998-.325-1.746-.974-2.245-.649-.499-1.528-.749-2.637-.749h-3.373v5.843h-.001zm0 0" id="Shape"/><path d="M62.12 34.398c.412.617.938 1.072 1.58 1.365.642.294 1.303.439 1.984.439.38 0 .768-.059 1.164-.178.396-.119.756-.297 1.081-.534.325-.237.59-.53.796-.88.206-.348.309-.752.309-1.211 0-.648-.206-1.145-.618-1.484-.412-.34-.922-.625-1.532-.855-.609-.229-1.275-.451-1.995-.665-.721-.214-1.386-.511-1.996-.892-.61-.379-1.121-.891-1.532-1.531-.412-.642-.618-1.509-.618-2.602 0-.49.107-1.014.321-1.568.214-.554.55-1.061 1.01-1.52.459-.459 1.049-.844 1.77-1.152.721-.308 1.587-.463 2.601-.463.918 0 1.797.127 2.637.38.839.253 1.576.769 2.209 1.544l-1.853 1.687c-.285-.442-.688-.8-1.211-1.069-.522-.269-1.116-.403-1.782-.403-.633 0-1.16.083-1.58.249-.42.166-.756.381-1.01.642s-.432.543-.534.843c-.104.302-.154.579-.154.832 0 .713.206 1.26.618 1.639.412.381.922.689 1.532.928.609.236 1.274.451 1.995.641.721.19 1.386.455 1.996.796.609.341 1.12.8 1.532 1.378.412.578.618 1.374.618 2.387 0 .809-.154 1.537-.463 2.186-.309.65-.725 1.196-1.247 1.64-.522.444-1.14.784-1.853 1.021-.712.237-1.473.356-2.28.356-1.077 0-2.099-.19-3.064-.57-.966-.38-1.734-.966-2.305-1.758l1.874-1.618zm0 0" id="Shape"/><path d="M77.205 21.096h2.281v16.818h-2.281v-16.818zm0 0" id="Shape"/><path d="M89.701 23.233h-5.417v-2.138h13.113v2.138h-5.417v14.681h-2.28v-14.681h.001zm0 0" id="Shape"/><path d="M102.195 21.096h10.856v2.138h-8.576v5.013h7.982v2.138h-7.982v5.392h9.003v2.139h-11.284v-16.82h.001zm0 0" id="Shape"/><path d="M128.064 21.096h5.844c.729 0 1.405.087 2.031.261.625.175 1.164.432 1.615.772.452.34.808.775 1.069 1.307.261.53.392 1.152.392 1.864 0 .966-.269 1.755-.808 2.364s-1.235 1.057-2.09 1.342v.047c.507.032.982.163 1.425.393.443.23.827.531 1.152.902.324.373.582.805.772 1.295.19.491.285 1.021.285 1.592 0 .76-.155 1.43-.463 2.008-.309.578-.733 1.064-1.271 1.461-.539.396-1.164.696-1.876.902-.713.206-1.481.309-2.305.309h-5.772v-16.819zm2.281 6.983h3.112c.428 0 .832-.044 1.211-.13.38-.088.713-.234.998-.439.285-.206.511-.467.677-.785.167-.316.25-.703.25-1.164 0-.664-.214-1.242-.642-1.733-.427-.491-1.101-.736-2.019-.736h-3.587v4.987zm0 7.839h3.35c.348 0 .732-.035 1.152-.106.419-.071.812-.214 1.176-.427.364-.215.673-.504.927-.867.253-.365.38-.848.38-1.449 0-.998-.325-1.746-.974-2.245-.649-.499-1.528-.749-2.637-.749h-3.373v5.843h-.001zm0 0"/><path d="M149.373 30.74l-6.367-9.645h2.922l4.584 7.387 4.728-7.387h2.779l-6.366 9.645v7.174h-2.281v-7.174h.001zm0 0"/></g></g></svg>